<svg xmlns="http://www.w3.org/2000/svg" viewBox="0 0 64 64" id="award"><path d="M57.68,42.35v-12.1c0-1.71-1.39-3.1-3.1-3.1h-12.25c-.39,0-.76,.09-1.1,.22v-9.06c0-1.71-1.39-3.1-3.1-3.1h-12.25c-1.71,0-3.1,1.39-3.1,3.1v4.29c-.34-.13-.71-.22-1.1-.22H9.42c-1.71,0-3.1,1.39-3.1,3.1v16.88c-1.34,.43-2.32,1.64-2.32,3.12,0,1.83,1.49,3.32,3.32,3.32H56.68c1.83,0,3.32-1.49,3.32-3.32,0-1.48-.99-2.69-2.32-3.12Zm-15.35-13.2h12.25c.61,0,1.1,.49,1.1,1.1v11.9h-14.45v-11.9c0-.61,.49-1.1,1.1-1.1Zm-17.55-10.84c0-.61,.49-1.1,1.1-1.1h12.25c.61,0,1.1,.49,1.1,1.1v23.84h-14.45V18.31Zm-15.35,6.06h12.25c.61,0,1.1,.49,1.1,1.1v16.67H8.32V25.47c0-.61,.49-1.1,1.1-1.1Zm47.25,22.42H7.32c-.73,0-1.32-.59-1.32-1.32s.59-1.32,1.32-1.32H56.68c.73,0,1.32,.59,1.32,1.32s-.59,1.32-1.32,1.32Z"></path><path d="M30.31 24.55c-.55 0-1 .45-1 1s.45 1 1 1h3.38c.55 0 1-.45 1-1s-.45-1-1-1h-.69v-4.42c0-.55-.45-1-1-1h-1.69c-.55 0-1 .45-1 1s.45 1 1 1h.69v3.42h-.69zM13.53 32.04h-.03c-.55 0-1 .45-1 1 0 .55.44 1 .99 1h4.11c.55 0 1-.45 1-1s-.45-1-1-1h-.04c.67-.76 1.04-1.62 1.04-2.44 0-1.68-1.37-3.05-3.05-3.05s-3.05 1.37-3.05 3.05c0 .55.45 1 1 1s1-.45 1-1 .47-1.05 1.05-1.05 1.05.47 1.05 1.05c0 .38-.26.85-.7 1.29-.68.67-1.65 1.15-2.37 1.15zM46.7 34.82c-.55.02-.98.47-.97 1.02.01.55.46.96 1.02.98l1.6-.03c.17 0 .42.08.57.23.17.16.26.38.26.62 0 .59-.3.88-.96.94-.2.01-.78-.12-1.18-.24-.52-.16-1.09.12-1.26.65-.17.53.12 1.09.65 1.26.26.08 1.11.34 1.77.34.06 0 .12 0 .17 0 1.7-.13 2.8-1.28 2.8-2.93 0-.78-.3-1.5-.85-2.04-.11-.11-.22-.2-.35-.29.11-.28.18-.58.18-.9 0-1.33-.85-2.22-2.28-2.38-.52-.06-1.2.15-1.47.25-.52.18-.8.75-.62 1.27.18.52.75.8 1.27.62.19-.07.51-.15.59-.15.5.06.5.18.5.4s-.18.38-.42.39l-1.03.03z"></path></svg>