<svg xmlns="http://www.w3.org/2000/svg" width="111.999" height="111.999" fill-rule="evenodd" clip-rule="evenodd" image-rendering="optimizeQuality" shape-rendering="geometricPrecision" text-rendering="geometricPrecision" viewBox="0 0 1166.66 1166.66" id="home"><path fill-rule="nonzero" d="M865.1 914.18l-194.2 0c-7.87,0 -14.24,-6.37 -14.24,-14.22l0 -248.31 -137.67 0 0 248.31c0,7.85 -6.37,14.22 -14.22,14.22l-194.56 0c-7.84,0 -14.21,-6.37 -14.21,-14.22l0 -319.75c0,-7.86 6.37,-14.22 14.21,-14.22 7.85,0 14.21,6.36 14.21,14.22l0 305.53 166.13 0 0 -248.31c0,-7.85 6.37,-14.22 14.21,-14.22l166.13 0c7.84,0 14.21,6.37 14.21,14.22l0 248.31 165.77 0 0 -305.53c0,-7.86 6.37,-14.22 14.22,-14.22 7.84,0 14.21,6.36 14.21,14.22l0 319.75c0,7.85 -6.37,14.22 -14.21,14.22z"></path><path fill-rule="nonzero" d="M225.6 587.83c-4,0 -8,-1.69 -10.8,-4.98 -5.09,-5.96 -4.41,-14.94 1.56,-20.04l358.95 -306.91c5.3,-4.54 13.12,-4.55 18.44,-0.04l356.51 302.4c5.99,5.09 6.72,14.06 1.63,20.05 -5.07,5.99 -14.03,6.72 -20.02,1.65l-347.28 -294.58 -349.74 299.06c-2.67,2.29 -5.96,3.41 -9.24,3.41z"></path></svg>