<svg xmlns="http://www.w3.org/2000/svg" data-name="Layer 1" viewBox="0 0 68 68" id="Like"><path fill="none" stroke="#960200" stroke-linecap="round" stroke-linejoin="round" d="M65.17,18.18A16.59,16.59,0,0,0,49.71,6.24,17.72,17.72,0,0,0,36,11.86c-.64.64-1.27,1.31-1.9,1.94a1.38,1.38,0,0,1-.37-.19c-.24-.23-.45-.47-.68-.71C30,9.6,26.43,7.19,21.83,6.48A16.58,16.58,0,0,0,7.1,11.1c-5.59,5.4-6.47,13.6-3.19,21a35.27,35.27,0,0,0,9,11.69c6.65,6,13.49,11.74,20.22,17.61.75.66,1.26.42,1.89-.12,4.72-4,9.5-7.94,14.19-12,4.52-3.92,8.92-8,12.4-12.89C65.51,30.85,67.12,24.83,65.17,18.18Z" class="colorStroke000000 svgStroke"></path></svg>