<svg xmlns="http://www.w3.org/2000/svg" width="1024" height="1024" fill="none" viewBox="0 0 1024 1024" id="poweroff"><path fill="#fff" fill-rule="evenodd" d="M699.5 557.589C699.5 467.877 648.783 398.698 568.395 377.863L574.667 353.663C667.208 377.647 724.5 457.691 724.5 557.589C724.5 676.503 629.544 773.237 512 773.237C394.456 773.237 299.5 676.503 299.5 557.589C299.5 463.53 358.864 383.427 441.819 353.983L450.181 377.543C377.081 403.49 324.5 474.239 324.5 557.589C324.5 663.066 408.63 748.237 512 748.237C615.37 748.237 699.5 663.066 699.5 557.589Z" clip-rule="evenodd"></path><path fill="#fff" fill-rule="evenodd" d="M499.5 514V264H524.5V514H499.5Z" clip-rule="evenodd"></path></svg>