<svg xmlns="http://www.w3.org/2000/svg" enable-background="new 0 0 64 64" viewBox="0 0 64 64" id="Reward"><g fill="#000000" class="color000000 svgShape"><linearGradient id="a" x1="12.612" x2="51.388" y1="32" y2="32" gradientUnits="userSpaceOnUse"><stop offset="0" stop-color="#960200" class="stopColorff0000 svgShape"></stop><stop offset=".328" stop-color="#ff1310" class="stopColorff3110 svgShape"></stop><stop offset=".784" stop-color="#ff2825" class="stopColorff7025 svgShape"></stop><stop offset="1" stop-color="#ff302d" class="stopColorff892d svgShape"></stop></linearGradient><path fill="url(#a)" d="M49.66,41.91c-0.53-0.64-1.03-1.26-1.22-1.84c-0.21-0.62-0.16-1.49-0.12-2.33c0.07-1.31,0.14-2.67-0.63-3.73
		c-0.78-1.07-2.11-1.43-3.4-1.76c-0.83-0.23-1.61-0.44-2.13-0.81c-0.52-0.38-0.95-1.05-1.42-1.77c-0.72-1.12-1.48-2.28-2.75-2.68
		c-0.3-0.11-0.62-0.16-0.97-0.16c-0.74,0-1.48,0.23-2.23,0.52c-0.16-0.45-0.42-0.84-0.75-1.16l11.75-8.4
		c0.39-0.28,0.55-0.78,0.41-1.24L41.22,0.77C41.07,0.31,40.65,0,40.15,0L29.82,0.09C29.71,0.03,29.59,0,29.46,0
		c-0.08,0-0.15,0.01-0.23,0.04c-0.05,0.01-0.09,0.03-0.13,0.06l-5.34,0.05c-0.12,0-0.23,0.03-0.38,0.11
		c-0.09,0.05-0.16,0.12-0.23,0.19l-0.04,0.09l-0.06,0.09L17.6,16.3c-0.16,0.46,0.01,0.98,0.41,1.26l11.97,8.6
		c-0.35,0.33-0.6,0.72-0.76,1.17c-0.75-0.28-1.5-0.52-2.23-0.52c-0.35,0-0.66,0.06-0.97,0.16c-1.28,0.41-2.02,1.57-2.75,2.7
		c-0.47,0.71-0.9,1.38-1.41,1.75c-0.52,0.38-1.31,0.58-2.14,0.81c-1.28,0.34-2.61,0.69-3.39,1.76c-0.78,1.06-0.71,2.43-0.64,3.74
		c0.05,0.83,0.09,1.69-0.11,2.32c-0.19,0.58-0.69,1.19-1.22,1.85c-0.85,1.04-1.73,2.12-1.73,3.49c0,1.38,0.88,2.45,1.73,3.5
		c0.53,0.65,1.03,1.27,1.22,1.84c0.2,0.62,0.16,1.45,0.11,2.31c-0.07,1.32-0.14,2.68,0.64,3.74c0.78,1.08,2.1,1.43,3.39,1.77
		c0.82,0.23,1.6,0.44,2.13,0.81c0.52,0.38,0.96,1.06,1.43,1.78c0.72,1.12,1.48,2.27,2.74,2.68c0.3,0.1,0.62,0.15,0.97,0.15
		c0.92,0,1.84-0.36,2.74-0.69c0.78-0.31,1.6-0.61,2.28-0.61c0.68,0,1.5,0.31,2.3,0.61c0.89,0.35,1.81,0.69,2.72,0.69
		c0.35,0,0.67-0.05,0.97-0.15c1.28-0.42,2.03-1.58,2.75-2.69c0.47-0.71,0.9-1.4,1.42-1.77c0.52-0.38,1.31-0.58,2.15-0.81
		c1.27-0.34,2.6-0.69,3.37-1.76c0.77-1.07,0.7-2.43,0.64-3.75c-0.05-0.87-0.09-1.68,0.12-2.3c0.19-0.58,0.68-1.2,1.22-1.85
		c0.85-1.05,1.72-2.13,1.72-3.5S50.52,42.96,49.66,41.91z M34.55,1.61l5.86,18.06l-3.26,2.34L30.58,1.65L34.55,1.61z M23.65,19.69
		l2.8-8.05l2.19,6.71l-1.67,3.74L23.65,19.69z M28.27,23l1.09-2.44l1.37,4.21L28.27,23z M48.45,47.91c-0.56,0.69-1.21,1.49-1.5,2.35
		c-0.29,0.9-0.24,1.9-0.19,2.87c0.05,1.1,0.1,2.14-0.35,2.75c-0.45,0.61-1.45,0.88-2.52,1.17c-0.93,0.25-1.9,0.52-2.67,1.07
		c-0.74,0.53-1.28,1.37-1.8,2.18c-0.6,0.93-1.17,1.81-1.92,2.05c-0.15,0.05-0.31,0.07-0.49,0.07c-0.62,0-1.38-0.28-2.18-0.58
		c-0.92-0.36-1.87-0.71-2.84-0.71c-0.98,0-1.92,0.36-2.84,0.71c-0.79,0.3-1.55,0.58-2.18,0.58c-0.18,0-0.34-0.02-0.49-0.07
		c-0.74-0.24-1.31-1.12-1.91-2.05c-0.53-0.8-1.07-1.63-1.82-2.18c-0.75-0.56-1.72-0.82-2.66-1.07c-1.06-0.29-2.06-0.55-2.52-1.18
		c-0.46-0.61-0.4-1.64-0.34-2.74c0.05-0.97,0.1-1.97-0.19-2.87c-0.29-0.86-0.9-1.61-1.5-2.35c-0.71-0.87-1.38-1.69-1.38-2.51
		s0.66-1.63,1.38-2.51c0.59-0.73,1.21-1.49,1.5-2.35c0.29-0.9,0.24-1.91,0.19-2.88c-0.06-1.09-0.12-2.13,0.33-2.73
		c0.47-0.62,1.47-0.9,2.54-1.18c0.93-0.25,1.89-0.52,2.67-1.06c0.74-0.54,1.28-1.38,1.8-2.19c0.59-0.93,1.17-1.8,1.92-2.05
		c0.14-0.05,0.3-0.07,0.48-0.07c0.61,0,1.39,0.29,2.13,0.57c0.3,1.36,1.49,2.33,2.89,2.33c1.41,0,2.6-0.97,2.89-2.33
		c0.78-0.3,1.52-0.57,2.13-0.57c0.18,0,0.34,0.02,0.49,0.07c0.75,0.25,1.32,1.12,1.92,2.06c0.53,0.8,1.06,1.63,1.81,2.18
		c0.75,0.54,1.72,0.81,2.66,1.06c1.06,0.28,2.07,0.55,2.53,1.17c0.45,0.61,0.39,1.64,0.34,2.73c-0.05,0.98-0.11,1.98,0.19,2.89
		c0.29,0.86,0.9,1.62,1.5,2.35c0.7,0.87,1.38,1.69,1.38,2.51S49.15,47.04,48.45,47.91z"></path><linearGradient id="b" x1="16.584" x2="47.416" y1="45.409" y2="45.409" gradientUnits="userSpaceOnUse"><stop offset="0" stop-color="#960200" class="stopColorff0000 svgShape"></stop><stop offset=".328" stop-color="#ff1310" class="stopColorff3110 svgShape"></stop><stop offset=".784" stop-color="#ff2825" class="stopColorff7025 svgShape"></stop><stop offset="1" stop-color="#ff302d" class="stopColorff892d svgShape"></stop></linearGradient><path fill="url(#b)" d="M45.09,41.15c-0.15-0.47-0.12-1.1-0.09-1.76c0.06-1.07,0.11-2.16-0.53-3.04c-0.65-0.9-1.77-1.2-2.77-1.47
		c-0.63-0.17-1.23-0.33-1.61-0.6c-0.38-0.28-0.71-0.79-1.07-1.35c-0.58-0.9-1.19-1.84-2.25-2.19c-0.26-0.08-0.53-0.12-0.81-0.12
		c-0.75,0-1.5,0.28-2.22,0.55c-0.6,0.24-1.23,0.48-1.73,0.48c-0.51,0-1.13-0.24-1.73-0.48c-0.72-0.28-1.47-0.55-2.22-0.55
		c-0.29,0-0.55,0.04-0.81,0.12c-1.06,0.35-1.66,1.28-2.25,2.19c-0.36,0.55-0.69,1.07-1.07,1.35c-0.39,0.28-0.98,0.44-1.63,0.61
		c-1.03,0.28-2.1,0.55-2.75,1.46c-0.63,0.88-0.58,1.98-0.53,3.05c0.03,0.66,0.06,1.29-0.09,1.75c-0.14,0.43-0.53,0.9-0.93,1.41
		c-0.68,0.84-1.4,1.71-1.4,2.84c0,1.14,0.71,2,1.4,2.85c0.41,0.5,0.79,0.97,0.93,1.4c0.15,0.47,0.12,1.09,0.09,1.76
		c-0.06,1.07-0.11,2.17,0.53,3.05c0.65,0.89,1.77,1.19,2.75,1.46c0.64,0.17,1.25,0.33,1.63,0.61c0.38,0.27,0.71,0.79,1.07,1.35
		c0.58,0.9,1.19,1.83,2.25,2.18c0.26,0.08,0.53,0.13,0.81,0.13c0.75,0,1.5-0.29,2.22-0.56c0.6-0.23,1.23-0.47,1.73-0.47
		c0.51,0,1.13,0.24,1.75,0.48c0.71,0.27,1.45,0.55,2.2,0.55c0.29,0,0.55-0.05,0.81-0.13c1.06-0.35,1.66-1.28,2.26-2.19
		c0.35-0.54,0.68-1.07,1.06-1.34c0.39-0.29,0.99-0.45,1.63-0.61c1.03-0.28,2.1-0.56,2.75-1.46c0.63-0.88,0.58-1.98,0.53-3.05
		c-0.03-0.66-0.06-1.3,0.09-1.76c0.14-0.43,0.53-0.9,0.93-1.4c0.68-0.84,1.4-1.71,1.4-2.85c0-1.14-0.71-2-1.4-2.84
		C45.61,42.06,45.23,41.58,45.09,41.15z M36.78,50.77c0.05,0.3-0.07,0.59-0.32,0.77c-0.13,0.1-0.29,0.15-0.46,0.15
		c-0.13,0-0.26-0.03-0.37-0.09L32,49.69l-3.64,1.91c-0.11,0.06-0.24,0.09-0.37,0.09c-0.16,0-0.32-0.05-0.46-0.15
		c-0.24-0.18-0.37-0.48-0.32-0.76l0.69-4.05l-2.93-2.86c-0.22-0.21-0.3-0.52-0.21-0.81c0.1-0.29,0.34-0.49,0.63-0.53l4.07-0.58
		l1.81-3.69c0.13-0.26,0.4-0.42,0.7-0.42c0.31,0,0.57,0.16,0.7,0.42l1.82,3.69l4.06,0.58c0.3,0.05,0.53,0.25,0.63,0.53
		c0.09,0.29,0.01,0.6-0.2,0.81l-2.94,2.86L36.78,50.77z"></path><linearGradient id="c" x1="27.215" x2="36.785" y1="44.924" y2="44.924" gradientUnits="userSpaceOnUse"><stop offset="0" stop-color="#960200" class="stopColorff0000 svgShape"></stop><stop offset=".328" stop-color="#ff1310" class="stopColorff3110 svgShape"></stop><stop offset=".784" stop-color="#ff2825" class="stopColorff7025 svgShape"></stop><stop offset="1" stop-color="#ff302d" class="stopColorff892d svgShape"></stop></linearGradient><path fill="url(#c)" d="M33.3,43L32,40.37L30.7,43c-0.11,0.24-0.34,0.4-0.58,0.44l-2.9,0.42l2.1,2.04c0.18,0.19,0.27,0.45,0.23,0.7
		l-0.5,2.88l2.59-1.37c0.12-0.06,0.24-0.09,0.37-0.09c0.13,0,0.25,0.03,0.37,0.09l2.6,1.37l-0.5-2.88c-0.05-0.26,0.04-0.52,0.22-0.7
		l2.1-2.04l-2.89-0.42C33.63,43.39,33.41,43.23,33.3,43z"></path></g></svg>