<svg xmlns="http://www.w3.org/2000/svg" viewBox="0 0 64 64" id="settings"><path fill="#231f20" d="M58.1 26.9c-.5-.6-1.3-.9-2.1-.9h-7.3c-.6 0-.9-.5-.9-.6-.1-.1-.2-.7.2-1.1l5.3-5.3c1.2-1.2 1.2-3.1 0-4.2l-4.2-4.2c-1.2-1.2-3.1-1.2-4.2 0l-5.1 5.1c-.4.4-.9.3-1.1.2-.1-.1-.6-.3-.6-.9L38 8c0-.8-.3-1.6-.9-2.1-.5-.6-1.3-.9-2.1-.9h-6c-1.7 0-3 1.3-3 3v7.1c0 .6-.5.9-.6.9-.1.1-.7.2-1.1-.2l-5.2-5.2c-1.2-1.2-3.1-1.2-4.2 0l-4.2 4.2c-.6.6-.9 1.3-.9 2.1s.3 1.6.9 2.1l5.3 5.3c.4.4.3.9.2 1.1-.2.1-.4.6-1 .6H8c-1.7 0-3 1.3-3 3v6c0 .8.3 1.6.9 2.1.5.6 1.3.9 2.1.9h7.1c.6 0 .9.5.9.6.1.1.2.7-.2 1.1l-5.2 5.2c-1.2 1.2-1.2 3.1 0 4.2l4.2 4.2c.6.6 1.3.9 2.1.9s1.6-.3 2.1-.9l5.2-5.2c.4-.4.9-.3 1.1-.2.1.1.6.3.6.9v7.1c0 .8.3 1.6.9 2.1.6.6 1.3.9 2.1.9h6c1.7 0 3-1.3 3-3v-7.1c0-.6.5-.9.6-.9.1-.1.6-.2 1.1.2l5.2 5.2c.6.6 1.3.9 2.1.9s1.6-.3 2.1-.9l4.2-4.2c.6-.6.9-1.3.9-2.1s-.3-1.6-.9-2.1L48 39.7c-.4-.4-.3-.9-.2-1.1.1-.1.3-.6.9-.6h7.1c1.7 0 3-1.3 3-3v-6c.2-.8-.1-1.6-.7-2.1zM57 35c0 .6-.5 1-1 1h-7.1c-1.2 0-2.3.7-2.8 1.9-.5 1.1-.2 2.4.6 3.3l5.2 5.2c.2.2.3.4.3.7 0 .3-.1.5-.3.7L47.7 52c-.2.2-.4.3-.7.3-.3 0-.5-.1-.7-.3l-5.2-5.2c-.9-.9-2.1-1.1-3.3-.6-1.1.5-1.9 1.5-1.9 2.8v7.1c0 .6-.5 1-1 1h-6c-.3 0-.5-.1-.7-.3-.1-.3-.2-.5-.2-.8v-7.1c0-1.2-.7-2.3-1.8-2.8-.4-.2-.8-.2-1.2-.2-.8 0-1.5.3-2.1.9L17.7 52c-.2.2-.4.3-.7.3-.3 0-.5-.1-.7-.3L12 47.7c-.4-.4-.4-1 0-1.4l5.2-5.2c.9-.9 1.1-2.1.7-3.3-.5-1.1-1.5-1.8-2.8-1.8H8c-.3 0-.5-.1-.7-.3-.2-.2-.3-.4-.3-.7v-6c0-.6.5-1 1-1h7.1c1.2 0 2.3-.7 2.8-1.9.5-1.1.2-2.4-.6-3.3L12 17.6c-.4-.4-.4-1 0-1.4l4.2-4.2c.4-.4 1-.4 1.4 0l5.2 5.2c.9.9 2.1 1.1 3.3.6 1.1-.5 1.9-1.5 1.9-2.8V8c0-.6.5-1 1-1h6c.3 0 .5.1.7.3.2.2.3.4.3.7v6.9c0 1.2.7 2.3 1.8 2.8s2.4.2 3.3-.7l5.1-5.1c.4-.4 1-.4 1.4 0l4.2 4.2c.4.4.4 1 0 1.4l-5.3 5.3c-.9.9-1.1 2.1-.7 3.3.5 1.1 1.5 1.8 2.8 1.8h7.3c.3 0 .5.1.7.3.2.2.3.4.3.7L57 35z"></path><path fill="#231f20" d="M32 22c-5.5 0-10 4.5-10 10s4.5 10 10 10 10-4.5 10-10-4.5-10-10-10zm0 18c-4.4 0-8-3.6-8-8s3.6-8 8-8 8 3.6 8 8-3.6 8-8 8z"></path></svg>