<svg width="618" height="118" viewBox="0 0 618 118" fill="none" xmlns="http://www.w3.org/2000/svg">
<g filter="url(#filter0_d_434_70)">
<path d="M4 6.48C4 4.16426 4 3.00639 4.46494 2.12828C4.84014 1.41965 5.41965 0.840138 6.12828 0.464937C7.00639 0 8.16426 0 10.48 0H93.52C95.8357 0 96.9936 0 97.8717 0.464937C98.5803 0.840138 99.1599 1.41965 99.5351 2.12828C100 3.00639 100 4.16426 100 6.48V103.52C100 105.836 100 106.994 99.5351 107.872C99.1599 108.58 98.5803 109.16 97.8717 109.535C96.9936 110 95.8357 110 93.52 110H10.48C8.16426 110 7.00639 110 6.12828 109.535C5.41965 109.16 4.84014 108.58 4.46494 107.872C4 106.994 4 105.836 4 103.52V6.48Z" fill="white"/>
</g>
<g filter="url(#filter1_d_434_70)">
<path d="M4 6.48C4 4.16426 4 3.00639 4.46494 2.12828C4.84014 1.41965 5.41965 0.840138 6.12828 0.464937C7.00639 0 8.16426 0 10.48 0H93.52C95.8357 0 96.9936 0 97.8717 0.464937C98.5803 0.840138 99.1599 1.41965 99.5351 2.12828C100 3.00639 100 4.16426 100 6.48V103.52C100 105.836 100 106.994 99.5351 107.872C99.1599 108.58 98.5803 109.16 97.8717 109.535C96.9936 110 95.8357 110 93.52 110H10.48C8.16426 110 7.00639 110 6.12828 109.535C5.41965 109.16 4.84014 108.58 4.46494 107.872C4 106.994 4 105.836 4 103.52V6.48Z" fill="white"/>
</g>
<path d="M615.036 51.1068C615.036 51.8788 614.782 52.7474 614.273 53.7125C613.765 54.6776 613.447 55.2567 613.32 55.4497C612.304 57.1225 611.795 58.2485 611.795 58.8275C611.795 60.1143 613.638 60.7577 617.324 60.7577V61.7228C612.113 61.7228 608.364 61.0472 606.076 59.6961C603.916 58.345 602.836 56.6078 602.836 54.4846C602.836 53.4552 603.026 52.4579 603.407 51.4928C604.17 49.627 604.551 48.1793 604.551 47.1499C604.551 46.0561 604.106 45.3162 603.217 44.9302C602.454 44.4798 601.183 44.2546 599.404 44.2546C595.719 44.2546 592.859 46.2491 590.826 50.2382C588.792 54.1629 587.776 58.7632 587.776 64.039V84.2094C587.776 85.8823 588.03 87.1047 588.538 87.8768C589.174 88.6489 590.508 89.0349 592.541 89.0349C593.558 89.0349 595.147 88.8741 597.307 88.5524V90H565.853V88.5524C568.013 88.8741 569.602 89.0349 570.619 89.0349C572.906 89.0349 574.368 88.6489 575.003 87.8768C575.639 87.0404 575.956 85.8179 575.956 84.2094V49.8522C574.05 50.1739 572.017 50.3347 569.856 50.3347C568.967 50.3347 567.632 50.2704 565.853 50.1417V47.5359H567.569C567.569 47.9863 568.013 48.3723 568.903 48.694C569.92 49.0157 571.064 49.1766 572.334 49.1766C574.241 49.1766 575.893 48.8227 577.291 48.115C578.689 47.4073 580.341 46.3457 582.247 44.9302H584.154L584.344 52.7474H586.251C587.776 49.4018 589.873 46.9569 592.541 45.4127C595.337 43.8042 598.26 43 601.31 43C605.759 43 609.126 43.8364 611.414 45.5092C613.829 47.1821 615.036 49.0479 615.036 51.1068Z" fill="white"/>
<path d="M531.001 93.712C524.742 93.712 520.065 91.696 516.968 87.664C513.872 83.568 512.324 77.616 512.324 69.808C512.324 65.712 512.982 61.872 514.3 58.288C515.618 54.64 517.66 51.696 520.427 49.456C523.26 47.152 526.719 46 530.804 46C537.458 46 542.201 47.984 545.034 51.952C547.867 55.856 549.284 60.56 549.284 66.064C549.284 67.024 549.218 68.272 549.086 69.808L548.987 70.672H519.241C519.505 85.008 523.622 92.176 531.594 92.176C535.152 92.176 537.787 91.12 539.5 89.008C541.213 86.896 542.069 84.496 542.069 81.808C542.069 80.72 541.773 79.92 541.18 79.408C540.653 78.896 539.961 78.64 539.105 78.64C538.446 78.64 537.853 78.832 537.326 79.216C536.865 79.536 536.634 79.952 536.634 80.464H535.745V77.872H548.295C548.493 80.304 547.867 82.736 546.418 85.168C545.034 87.6 542.992 89.616 540.291 91.216C537.589 92.816 534.493 93.648 531.001 93.712ZM539.797 69.232C540.982 69.232 541.674 69.136 541.872 68.944C542.135 68.688 542.3 68.112 542.366 67.216C542.432 66.512 542.465 65.456 542.465 64.048C542.465 59.184 541.542 55.152 539.698 51.952C537.853 48.752 534.756 47.152 530.408 47.152C526.192 47.152 523.293 49.168 521.712 53.2C520.131 57.232 519.307 62.576 519.241 69.232H539.797Z" fill="white"/>
<path d="M481.367 44.824C480.379 44.568 479.193 45.176 477.809 46.648C479.522 48.12 480.807 49.944 481.664 52.12C482.52 54.296 482.948 56.6 482.948 59.032C482.948 63.768 481.598 67.608 478.897 70.552C476.261 73.496 472.144 74.968 466.544 74.968C462.064 74.968 458.44 73.88 455.673 71.704C454.224 72.088 453.202 72.856 452.609 74.008C452.017 75.096 451.72 76.184 451.72 77.272C451.72 80.344 454.586 81.88 460.318 81.88L470.991 82.072C476.591 82.136 480.774 83.64 483.541 86.584C486.374 89.464 487.791 92.888 487.791 96.856C487.791 99.992 486.901 102.936 485.122 105.688C483.344 108.504 480.84 110.776 477.612 112.504C474.384 114.232 470.694 115.096 466.544 115.096C463.052 115.096 459.824 114.456 456.859 113.176C453.96 111.896 451.654 110.168 449.941 107.992C448.294 105.88 447.471 103.544 447.471 100.984C447.471 99.192 447.965 97.432 448.953 95.704C449.941 94.04 451.489 92.632 453.598 91.48C455.772 90.328 458.506 89.752 461.8 89.752V90.52C458.506 90.52 456.299 91.448 455.179 93.304C454.059 95.16 453.499 97.72 453.499 100.984C453.499 104.44 454.586 107.352 456.76 109.72C458.934 112.152 462.195 113.368 466.544 113.368C471.221 113.368 474.845 111.96 477.414 109.144C480.049 106.392 481.367 102.52 481.367 97.528C481.367 90.104 474.779 86.392 461.602 86.392C453.038 86.392 448.755 84.12 448.755 79.576C448.755 77.912 449.249 76.216 450.238 74.488C451.292 72.76 452.84 71.576 454.882 70.936C452.049 68.12 450.633 64.152 450.633 59.032C450.633 54.552 451.951 50.776 454.586 47.704C457.221 44.568 461.207 43 466.544 43C470.694 43 474.153 43.992 476.92 45.976C477.777 45.144 478.798 44.472 479.984 43.96C481.235 43.384 482.421 43.096 483.541 43.096C484.266 43.096 484.793 43.16 485.122 43.288C486.111 43.608 486.934 44.152 487.593 44.92C488.318 45.624 488.68 46.392 488.68 47.224C488.68 47.864 488.417 48.536 487.889 49.24C487.231 50.072 486.638 50.488 486.111 50.488C485.649 50.488 485.254 50.264 484.925 49.816C484.595 49.368 484.2 48.696 483.739 47.8C483.278 46.84 482.882 46.136 482.553 45.688C482.224 45.176 481.828 44.888 481.367 44.824ZM466.544 73.816C470.035 73.816 472.473 72.504 473.857 69.88C475.306 67.256 476.031 63.64 476.031 59.032C476.031 54.68 475.306 51.128 473.857 48.376C472.407 45.56 469.969 44.152 466.544 44.152C463.184 44.152 460.812 45.56 459.428 48.376C458.045 51.128 457.353 54.68 457.353 59.032C457.353 63.64 458.012 67.256 459.329 69.88C460.713 72.504 463.118 73.816 466.544 73.816Z" fill="white"/>
<path d="M419.849 88.088C419.849 89.688 420.014 90.904 420.344 91.736C420.673 92.504 421.431 92.888 422.616 92.888C423.144 92.888 423.967 92.728 425.087 92.408V93.848H408.287V92.408C409.407 92.728 410.231 92.888 410.758 92.888C411.812 92.888 412.471 92.504 412.734 91.736C413.064 90.968 413.228 89.752 413.228 88.088V62.36C413.228 57.944 412.273 54.488 410.362 51.992C408.518 49.496 406.08 48.248 403.049 48.248C400.151 48.248 397.812 49.368 396.033 51.608C394.32 53.784 393.101 56.376 392.376 59.384C391.718 62.392 391.388 65.272 391.388 68.024V88.088C391.388 89.752 391.52 90.968 391.784 91.736C392.113 92.504 392.805 92.888 393.859 92.888C394.386 92.888 395.209 92.728 396.329 92.408V93.848H379.529V92.408C380.649 92.728 381.473 92.888 382 92.888C383.186 92.888 383.944 92.504 384.273 91.736C384.602 90.904 384.767 89.688 384.767 88.088V54.008C383.779 54.328 382.725 54.488 381.605 54.488C381.144 54.488 380.452 54.424 379.529 54.296V51.704H380.419C380.419 52.152 380.649 52.536 381.111 52.856C381.638 53.176 382.231 53.336 382.889 53.336C383.812 53.336 384.635 52.984 385.36 52.28C386.085 51.576 386.974 50.488 388.028 49.016H389.807L389.906 56.792H391.289C392.475 53.912 394.089 51.576 396.132 49.784C398.24 47.928 400.842 47 403.939 47C406.442 47 408.913 47.64 411.351 48.92C413.854 50.136 415.896 51.928 417.478 54.296C419.059 56.6 419.849 59.288 419.849 62.36V88.088Z" fill="white"/>
<path d="M338.501 93.712C332.242 93.712 327.565 91.696 324.468 87.664C321.372 83.568 319.824 77.616 319.824 69.808C319.824 65.712 320.482 61.872 321.8 58.288C323.118 54.64 325.16 51.696 327.927 49.456C330.76 47.152 334.219 46 338.304 46C344.958 46 349.701 47.984 352.534 51.952C355.367 55.856 356.784 60.56 356.784 66.064C356.784 67.024 356.718 68.272 356.586 69.808L356.487 70.672H326.741C327.005 85.008 331.122 92.176 339.094 92.176C342.652 92.176 345.287 91.12 347 89.008C348.713 86.896 349.569 84.496 349.569 81.808C349.569 80.72 349.273 79.92 348.68 79.408C348.153 78.896 347.461 78.64 346.605 78.64C345.946 78.64 345.353 78.832 344.826 79.216C344.365 79.536 344.134 79.952 344.134 80.464H343.245V77.872H355.795C355.993 80.304 355.367 82.736 353.918 85.168C352.534 87.6 350.492 89.616 347.791 91.216C345.089 92.816 341.993 93.648 338.501 93.712ZM347.296 69.232C348.482 69.232 349.174 69.136 349.372 68.944C349.635 68.688 349.8 68.112 349.866 67.216C349.932 66.512 349.965 65.456 349.965 64.048C349.965 59.184 349.042 55.152 347.198 51.952C345.353 48.752 342.256 47.152 337.908 47.152C333.692 47.152 330.793 49.168 329.212 53.2C327.631 57.232 326.807 62.576 326.741 69.232H347.296Z" fill="white"/>
<path d="M276.588 96.36C277.708 96.68 278.532 96.84 279.059 96.84C280.245 96.84 281.002 96.456 281.332 95.688C281.661 94.856 281.826 93.64 281.826 92.04V26.28C281.167 26.472 280.409 26.568 279.553 26.568C278.631 26.568 277.642 26.472 276.588 26.28V23.688H277.478C277.478 24.072 277.807 24.456 278.466 24.84C279.191 25.16 279.882 25.32 280.541 25.32C282.056 25.32 283.374 24.936 284.494 24.168C285.614 23.336 286.174 22.28 286.174 21H288.052L287.953 92.04C287.953 93.704 288.085 94.92 288.348 95.688C288.678 96.456 289.369 96.84 290.424 96.84C290.951 96.84 291.774 96.68 292.894 96.36V97.8H276.588V96.36Z" fill="white"/>
<path d="M235.412 96.36C236.532 96.68 237.355 96.84 237.882 96.84C239.068 96.84 239.826 96.456 240.155 95.688C240.485 94.856 240.649 93.64 240.649 92.04V26.28C239.991 26.472 239.233 26.568 238.377 26.568C237.454 26.568 236.466 26.472 235.412 26.28V23.688H236.301C236.301 24.072 236.631 24.456 237.289 24.84C238.014 25.16 238.706 25.32 239.365 25.32C240.88 25.32 242.198 24.936 243.318 24.168C244.438 23.336 244.998 22.28 244.998 21H246.875L246.777 92.04C246.777 93.704 246.908 94.92 247.172 95.688C247.501 96.456 248.193 96.84 249.247 96.84C249.774 96.84 250.598 96.68 251.718 96.36V97.8H235.412V96.36Z" fill="white"/>
<path d="M190.809 93.808C187.12 93.808 184.024 92.72 181.52 90.544C179.016 88.304 177.765 85.136 177.765 81.04C177.765 78.096 178.786 75.6 180.828 73.552C182.871 71.44 185.111 70 187.548 69.232C188.8 68.848 190.249 68.496 191.896 68.176C193.609 67.792 194.762 67.536 195.355 67.408C198.649 66.768 201.12 66.192 202.767 65.68C204.414 65.104 205.402 64.336 205.732 63.376C205.732 58.768 204.809 54.928 202.965 51.856C201.186 48.784 198.188 47.248 193.972 47.248C191.336 47.248 189.36 48.176 188.042 50.032C186.791 51.824 186.165 54.256 186.165 57.328C186.165 58.16 186.329 58.768 186.659 59.152C186.988 59.472 187.746 59.632 188.932 59.632C189.656 59.632 190.282 59.472 190.809 59.152C191.336 58.832 191.6 58.448 191.6 58H192.489V60.592H179.544C179.544 58.288 180.235 56.016 181.619 53.776C183.002 51.472 184.913 49.616 187.351 48.208C189.788 46.736 192.489 46 195.454 46C199.407 46 202.569 46.896 204.941 48.688C207.379 50.416 209.092 52.528 210.08 55.024C211.134 57.456 211.661 59.888 211.661 62.32V83.152C211.661 87.952 212.715 90.352 214.824 90.352C215.482 90.352 216.075 89.936 216.602 89.104C217.195 88.208 217.492 87.312 217.492 86.416H218.48C218.48 88.784 217.722 90.608 216.207 91.888C214.758 93.168 213.078 93.808 211.167 93.808C208.927 93.808 207.445 92.848 206.72 90.928C206.061 89.008 205.732 86.32 205.732 82.864V78.448C205.732 79.344 205.271 81.04 204.348 83.536C203.492 86.032 201.944 88.368 199.704 90.544C197.464 92.72 194.499 93.808 190.809 93.808ZM193.082 91.12C195.322 91.12 197.398 90.256 199.308 88.528C201.219 86.8 202.734 84.752 203.854 82.384C204.974 80.016 205.534 78.032 205.534 76.432V65.488C205.534 65.68 205.205 65.872 204.546 66.064C203.887 66.256 203.064 66.448 202.075 66.64C197.793 67.728 194.664 68.624 192.687 69.328C189.591 70.416 187.318 71.952 185.868 73.936C184.419 75.856 183.694 78.032 183.694 80.464C183.694 83.28 184.485 85.776 186.066 87.952C187.713 90.064 190.052 91.12 193.082 91.12Z" fill="white"/>
<path d="M156.616 88.04C156.616 89.64 156.781 90.856 157.111 91.688C157.44 92.456 158.198 92.84 159.384 92.84C159.911 92.84 160.734 92.68 161.854 92.36V93.8H145.054V92.36C146.174 92.68 146.998 92.84 147.525 92.84C148.579 92.84 149.238 92.456 149.501 91.688C149.831 90.92 149.995 89.704 149.995 88.04V61.16C149.995 56.808 149.073 53.576 147.228 51.464C145.384 49.288 142.913 48.2 139.816 48.2C136.918 48.2 134.579 49.32 132.8 51.56C131.087 53.736 129.868 56.328 129.144 59.336C128.485 62.344 128.155 65.224 128.155 67.976V88.04C128.155 89.704 128.287 90.92 128.551 91.688C128.88 92.456 129.572 92.84 130.626 92.84C131.153 92.84 131.976 92.68 133.096 92.36V93.8H116V92.36C117.12 92.68 117.944 92.84 118.471 92.84C119.656 92.84 120.414 92.456 120.744 91.688C121.073 90.856 121.238 89.64 121.238 88.04V21.992C120.249 22.312 119.195 22.472 118.075 22.472C117.614 22.472 116.922 22.408 116 22.28V19.688H116.889C116.889 20.136 117.12 20.52 117.581 20.84C118.108 21.16 118.701 21.32 119.36 21.32C120.282 21.32 121.106 20.968 121.831 20.264C122.555 19.56 123.445 18.472 124.499 17H126.574L126.673 56.744H128.056C129.242 53.864 130.856 51.528 132.899 49.736C135.007 47.88 137.609 46.952 140.706 46.952C143.209 46.952 145.68 47.592 148.118 48.872C150.621 50.088 152.664 51.88 154.245 54.248C155.826 56.552 156.616 59.24 156.616 62.312V88.04Z" fill="white"/>
<path d="M54.6118 96.88C49.0118 96.88 43.6753 95.184 38.6024 91.792C33.5953 88.336 29.5765 83.728 26.5459 77.968C23.5153 72.208 22 66.032 22 59.44C22 52.272 23.4494 45.84 26.3482 40.144C29.2471 34.448 33.2 30 38.2071 26.8C43.2141 23.6 48.7812 22 54.9082 22C58.3341 22 62.2541 22.896 66.6682 24.688C71.1482 26.48 74.2777 28.528 76.0565 30.832L77.5388 23.632H79.2188V45.04H77.1435C77.1435 41.712 76.0894 38.416 73.9812 35.152C71.9388 31.888 69.1059 29.2 65.4824 27.088C61.8588 24.976 57.8729 23.92 53.5247 23.92C49.0447 23.92 45.0588 25.456 41.5671 28.528C38.0753 31.6 35.3412 35.824 33.3647 41.2C31.3882 46.512 30.4 52.464 30.4 59.056C30.4 65.392 31.3553 71.312 33.2659 76.816C35.2424 82.256 38.2071 86.64 42.16 89.968C46.1788 93.296 51.0541 94.96 56.7859 94.96C61.0024 94.96 64.8565 93.776 68.3482 91.408C71.84 89.04 74.4424 85.968 76.1553 82.192C76.3529 81.744 76.7482 80.432 77.3412 78.256C77.8024 76.336 78.2635 74.736 78.7247 73.456C79.2518 72.112 79.9435 70.928 80.8 69.904H82.1835C81.1294 70.8 80.3718 72.464 79.9106 74.896C79.5153 77.328 79.3177 80.688 79.3177 84.976C79.3177 86.512 78.0329 88.24 75.4635 90.16C72.96 92.016 69.7647 93.616 65.8777 94.96C62.0565 96.24 58.3012 96.88 54.6118 96.88Z" fill="#960200"/>
<defs>
<filter id="filter0_d_434_70" x="0" y="0" width="104" height="118" filterUnits="userSpaceOnUse" color-interpolation-filters="sRGB">
<feFlood flood-opacity="0" result="BackgroundImageFix"/>
<feColorMatrix in="SourceAlpha" type="matrix" values="0 0 0 0 0 0 0 0 0 0 0 0 0 0 0 0 0 0 127 0" result="hardAlpha"/>
<feOffset dy="4"/>
<feGaussianBlur stdDeviation="2"/>
<feComposite in2="hardAlpha" operator="out"/>
<feColorMatrix type="matrix" values="0 0 0 0 0 0 0 0 0 0 0 0 0 0 0 0 0 0 0.25 0"/>
<feBlend mode="normal" in2="BackgroundImageFix" result="effect1_dropShadow_434_70"/>
<feBlend mode="normal" in="SourceGraphic" in2="effect1_dropShadow_434_70" result="shape"/>
</filter>
<filter id="filter1_d_434_70" x="0" y="0" width="104" height="118" filterUnits="userSpaceOnUse" color-interpolation-filters="sRGB">
<feFlood flood-opacity="0" result="BackgroundImageFix"/>
<feColorMatrix in="SourceAlpha" type="matrix" values="0 0 0 0 0 0 0 0 0 0 0 0 0 0 0 0 0 0 127 0" result="hardAlpha"/>
<feOffset dy="4"/>
<feGaussianBlur stdDeviation="2"/>
<feComposite in2="hardAlpha" operator="out"/>
<feColorMatrix type="matrix" values="0 0 0 0 0 0 0 0 0 0 0 0 0 0 0 0 0 0 0.25 0"/>
<feBlend mode="normal" in2="BackgroundImageFix" result="effect1_dropShadow_434_70"/>
<feBlend mode="normal" in="SourceGraphic" in2="effect1_dropShadow_434_70" result="shape"/>
</filter>
</defs>
</svg>
