<svg width="104" height="118" viewBox="0 0 104 118" fill="none" xmlns="http://www.w3.org/2000/svg">
<g filter="url(#filter0_d_434_79)">
<path d="M4 6.48C4 4.16426 4 3.00639 4.46494 2.12828C4.84014 1.41965 5.41965 0.840138 6.12828 0.464937C7.00639 0 8.16426 0 10.48 0H93.52C95.8357 0 96.9936 0 97.8717 0.464937C98.5803 0.840138 99.1599 1.41965 99.5351 2.12828C100 3.00639 100 4.16426 100 6.48V103.52C100 105.836 100 106.994 99.5351 107.872C99.1599 108.58 98.5803 109.16 97.8717 109.535C96.9936 110 95.8357 110 93.52 110H10.48C8.16426 110 7.00639 110 6.12828 109.535C5.41965 109.16 4.84014 108.58 4.46494 107.872C4 106.994 4 105.836 4 103.52V6.48Z" fill="white"/>
</g>
<g filter="url(#filter1_d_434_79)">
<path d="M4 6.48C4 4.16426 4 3.00639 4.46494 2.12828C4.84014 1.41965 5.41965 0.840138 6.12828 0.464937C7.00639 0 8.16426 0 10.48 0H93.52C95.8357 0 96.9936 0 97.8717 0.464937C98.5803 0.840138 99.1599 1.41965 99.5351 2.12828C100 3.00639 100 4.16426 100 6.48V103.52C100 105.836 100 106.994 99.5351 107.872C99.1599 108.58 98.5803 109.16 97.8717 109.535C96.9936 110 95.8357 110 93.52 110H10.48C8.16426 110 7.00639 110 6.12828 109.535C5.41965 109.16 4.84014 108.58 4.46494 107.872C4 106.994 4 105.836 4 103.52V6.48Z" fill="white"/>
</g>
<path d="M54.6118 96.88C49.0118 96.88 43.6753 95.184 38.6024 91.792C33.5953 88.336 29.5765 83.728 26.5459 77.968C23.5153 72.208 22 66.032 22 59.44C22 52.272 23.4494 45.84 26.3482 40.144C29.2471 34.448 33.2 30 38.2071 26.8C43.2141 23.6 48.7812 22 54.9082 22C58.3341 22 62.2541 22.896 66.6682 24.688C71.1482 26.48 74.2777 28.528 76.0565 30.832L77.5388 23.632H79.2188V45.04H77.1435C77.1435 41.712 76.0894 38.416 73.9812 35.152C71.9388 31.888 69.1059 29.2 65.4824 27.088C61.8588 24.976 57.8729 23.92 53.5247 23.92C49.0447 23.92 45.0588 25.456 41.5671 28.528C38.0753 31.6 35.3412 35.824 33.3647 41.2C31.3882 46.512 30.4 52.464 30.4 59.056C30.4 65.392 31.3553 71.312 33.2659 76.816C35.2424 82.256 38.2071 86.64 42.16 89.968C46.1788 93.296 51.0541 94.96 56.7859 94.96C61.0024 94.96 64.8565 93.776 68.3482 91.408C71.84 89.04 74.4424 85.968 76.1553 82.192C76.3529 81.744 76.7482 80.432 77.3412 78.256C77.8024 76.336 78.2635 74.736 78.7247 73.456C79.2518 72.112 79.9435 70.928 80.8 69.904H82.1835C81.1294 70.8 80.3718 72.464 79.9106 74.896C79.5153 77.328 79.3177 80.688 79.3177 84.976C79.3177 86.512 78.0329 88.24 75.4635 90.16C72.96 92.016 69.7647 93.616 65.8777 94.96C62.0565 96.24 58.3012 96.88 54.6118 96.88Z" fill="#960200"/>
<defs>
<filter id="filter0_d_434_79" x="0" y="0" width="104" height="118" filterUnits="userSpaceOnUse" color-interpolation-filters="sRGB">
<feFlood flood-opacity="0" result="BackgroundImageFix"/>
<feColorMatrix in="SourceAlpha" type="matrix" values="0 0 0 0 0 0 0 0 0 0 0 0 0 0 0 0 0 0 127 0" result="hardAlpha"/>
<feOffset dy="4"/>
<feGaussianBlur stdDeviation="2"/>
<feComposite in2="hardAlpha" operator="out"/>
<feColorMatrix type="matrix" values="0 0 0 0 0 0 0 0 0 0 0 0 0 0 0 0 0 0 0.25 0"/>
<feBlend mode="normal" in2="BackgroundImageFix" result="effect1_dropShadow_434_79"/>
<feBlend mode="normal" in="SourceGraphic" in2="effect1_dropShadow_434_79" result="shape"/>
</filter>
<filter id="filter1_d_434_79" x="0" y="0" width="104" height="118" filterUnits="userSpaceOnUse" color-interpolation-filters="sRGB">
<feFlood flood-opacity="0" result="BackgroundImageFix"/>
<feColorMatrix in="SourceAlpha" type="matrix" values="0 0 0 0 0 0 0 0 0 0 0 0 0 0 0 0 0 0 127 0" result="hardAlpha"/>
<feOffset dy="4"/>
<feGaussianBlur stdDeviation="2"/>
<feComposite in2="hardAlpha" operator="out"/>
<feColorMatrix type="matrix" values="0 0 0 0 0 0 0 0 0 0 0 0 0 0 0 0 0 0 0.25 0"/>
<feBlend mode="normal" in2="BackgroundImageFix" result="effect1_dropShadow_434_79"/>
<feBlend mode="normal" in="SourceGraphic" in2="effect1_dropShadow_434_79" result="shape"/>
</filter>
</defs>
</svg>
